<svg width="535" height="65" viewBox="0 0 535 65" fill="none" xmlns="http://www.w3.org/2000/svg">
    <path fill-rule="evenodd" clip-rule="evenodd"
        d="M39.875 43.0312C39.875 43.4407 39.7493 43.8403 39.5149 44.1761C37.7258 46.7389 35.24 48.6252 32.1466 49.8579L32.1393 49.8608C29.1071 51.0553 25.6405 51.625 21.7812 51.625C17.7491 51.625 14.0938 50.6808 10.8754 48.7451L10.8663 48.7397C7.6464 46.7797 5.16551 44.0051 3.42526 40.4788L3.42063 40.4695C1.70632 36.9494 0.856652 32.9287 0.812597 28.4572L0.8125 28.4375V24.4688C0.8125 17.3242 2.47365 11.4903 6.06634 7.24012L6.07049 7.23521C9.72493 2.94007 14.826 0.875 21.0938 0.875C26.1897 0.875 30.5068 2.18823 33.8471 4.99836C37.1907 7.79013 39.1525 11.7122 39.8543 16.557C39.9376 17.1315 39.7671 17.7138 39.3872 18.1527C39.0073 18.5916 38.4555 18.8438 37.875 18.8438H31.875C30.9121 18.8438 30.0859 18.1576 29.909 17.2111C29.405 14.5136 28.3978 12.7279 27.0573 11.6016C25.72 10.4782 23.8147 9.8125 21.125 9.8125C17.6366 9.8125 15.2296 11.0047 13.581 13.246C11.8709 15.5784 10.8643 19.1753 10.8438 24.3164V28.0312C10.8438 32.8397 11.9415 36.4246 13.9243 38.9933C15.8583 41.4785 18.4179 42.7188 21.8125 42.7188C23.9208 42.7188 25.6905 42.4838 27.1506 42.0512C28.249 41.7257 29.1572 41.2356 29.9062 40.591V33.2188H21.375C20.2704 33.2188 19.375 32.3233 19.375 31.2188V26.3438C19.375 25.2392 20.2704 24.3438 21.375 24.3438H37.875C38.9796 24.3438 39.875 25.2392 39.875 26.3438V43.0312ZM31.9062 31.2188V41.4375C30.8021 42.625 29.4062 43.4688 27.7188 43.9688C26.0312 44.4688 24.0625 44.7188 21.8125 44.7188C17.8333 44.7188 14.6771 43.2188 12.3438 40.2188C10.0104 37.1979 8.84375 33.1354 8.84375 28.0312V24.3125C8.86458 18.9583 9.90625 14.875 11.9688 12.0625C14.0521 9.22917 17.1042 7.8125 21.125 7.8125C27.1667 7.8125 30.75 10.8229 31.875 16.8438H37.875C37.7749 16.1525 37.6477 15.4859 37.4935 14.8438C36.653 11.3441 35.0094 8.57324 32.5625 6.53125C29.6667 4.09375 25.8438 2.875 21.0938 2.875C15.3021 2.875 10.8021 4.76042 7.59375 8.53125C4.40625 12.3021 2.8125 17.6146 2.8125 24.4688V28.4375C2.85417 32.6667 3.65625 36.3854 5.21875 39.5938C6.80208 42.8021 9.03125 45.2812 11.9062 47.0312C14.7812 48.7604 18.0729 49.625 21.7812 49.625C25.4479 49.625 28.6562 49.0833 31.4062 48C34.1771 46.8958 36.3333 45.2396 37.875 43.0312V26.3438H21.375V31.2188H31.9062ZM48.3998 46.5088L48.395 46.5038C45.0948 43.0362 43.5312 38.4726 43.5312 33.0312V31.9688C43.5312 28.358 44.2166 25.0632 45.6374 22.1285L45.6402 22.1226C47.0783 19.177 49.1045 16.826 51.7257 15.1336C54.3531 13.4297 57.229 12.5625 60.3125 12.5625C65.1925 12.5625 69.2118 14.1958 72.0926 17.6183C74.9401 21.0013 76.2188 25.6739 76.2188 31.3438V33.75C76.2188 34.8546 75.3233 35.75 74.2188 35.75H53.5046C53.8395 37.7062 54.5914 39.2637 55.699 40.4988C57.1784 42.1058 59.009 42.9062 61.3438 42.9062C63.1145 42.9062 64.4742 42.5459 65.5172 41.9324C66.7018 41.2356 67.7517 40.3059 68.6674 39.1209C68.9926 38.7001 69.4719 38.4261 69.9994 38.3595C70.527 38.2929 71.0593 38.4391 71.4789 38.7658L75.0101 41.5158C75.8298 42.1541 76.0242 43.3138 75.4576 44.1846C72.2171 49.1644 67.3015 51.625 61.0312 51.625C55.9648 51.625 51.6929 49.9451 48.3998 46.5088ZM54.2188 41.8438C52.7507 40.2108 51.8378 38.1796 51.4798 35.75C51.3856 35.1109 51.3299 34.4442 51.3125 33.75H74.2188V31.3438C74.2188 25.9479 73 21.8021 70.5625 18.9062C68.125 16.0104 64.7083 14.5625 60.3125 14.5625C57.625 14.5625 55.125 15.3125 52.8125 16.8125C50.5208 18.2917 48.7292 20.3542 47.4375 23C46.1667 25.625 45.5312 28.6146 45.5312 31.9688V33.0312C45.5312 38.0729 46.9688 42.1042 49.8438 45.125C52.7188 48.125 56.4479 49.625 61.0312 49.625C66.6979 49.625 70.9479 47.4479 73.7812 43.0938L70.25 40.3438C70.2273 40.3732 70.2045 40.4024 70.1816 40.4316C69.1344 41.7659 67.9176 42.8407 66.5312 43.6562C65.1146 44.4896 63.3854 44.9062 61.3438 44.9062C58.4688 44.9062 56.0938 43.8854 54.2188 41.8438ZM55.896 23.2435C55.0431 24.1525 54.3636 25.3803 53.9177 27H66.2558C65.9553 25.2425 65.3565 23.9719 64.5634 23.0739L64.5549 23.0643C63.5666 21.9306 62.2293 21.3125 60.3125 21.3125C58.5348 21.3125 57.1085 21.9354 55.9044 23.2345L55.896 23.2435ZM68.2807 27C68.3544 27.498 68.4067 28.0188 68.4375 28.5625V29H51.5C51.5861 28.2971 51.704 27.6305 51.8537 27C52.3563 24.8835 53.2176 23.1752 54.4375 21.875C56.0208 20.1667 57.9792 19.3125 60.3125 19.3125C62.7292 19.3125 64.6458 20.125 66.0625 21.75C67.217 23.0573 67.9564 24.8073 68.2807 27ZM88.5079 17.4478C87.8277 18.0245 87.1897 18.6878 86.5938 19.4375L86.4062 15.1875H80.9375V49H86.7188V24.9062C87.5104 23.2812 88.6146 21.9688 90.0312 20.9688C91.4479 19.9688 93.0938 19.4688 94.9688 19.4688C97.2812 19.4688 98.9792 20.0521 100.062 21.2188C101.167 22.3854 101.729 24.1875 101.75 26.625V49H107.531V26.6562C107.469 18.5938 103.865 14.5625 96.7188 14.5625C93.5133 14.5625 90.7763 15.5243 88.5079 17.4478ZM99.75 26.6335C99.73 24.4523 99.2234 23.2417 98.6099 22.5935L98.5969 22.5797C98.0361 21.9757 96.9799 21.4688 94.9688 21.4688C93.4714 21.4688 92.2361 21.8605 91.1846 22.6027C90.1679 23.3204 89.347 24.2402 88.7188 25.3907V49C88.7188 50.1046 87.8233 51 86.7188 51H80.9375C79.8329 51 78.9375 50.1046 78.9375 49V15.1875C78.9375 14.0829 79.8329 13.1875 80.9375 13.1875H86.4062C87.4493 13.1875 88.3122 13.9878 88.3991 15.0183C90.7838 13.388 93.573 12.5625 96.7188 12.5625C100.668 12.5625 103.979 13.6876 106.272 16.2529C108.526 18.7733 109.498 22.3553 109.531 26.6407L109.531 26.6562V49C109.531 50.1046 108.636 51 107.531 51H101.75C100.645 51 99.75 50.1046 99.75 49V26.6335ZM117.65 46.5088L117.645 46.5038C114.345 43.0362 112.781 38.4726 112.781 33.0312V31.9688C112.781 28.358 113.467 25.0632 114.887 22.1285L114.89 22.1226C116.328 19.1766 118.355 16.8255 120.977 15.133C123.604 13.4295 126.479 12.5625 129.562 12.5625C134.443 12.5625 138.462 14.1958 141.343 17.6183C144.19 21.0013 145.469 25.6739 145.469 31.3438V33.75C145.469 34.8546 144.573 35.75 143.469 35.75H122.755C123.09 37.7062 123.841 39.2637 124.949 40.4988C126.428 42.1058 128.259 42.9062 130.594 42.9062C132.364 42.9062 133.724 42.5459 134.767 41.9324C135.952 41.2356 137.002 40.3059 137.917 39.1209C138.243 38.7001 138.722 38.4261 139.249 38.3595C139.777 38.2929 140.309 38.4391 140.729 38.7658L144.26 41.5158C145.08 42.1541 145.274 43.3138 144.708 44.1846C141.467 49.1644 136.552 51.625 130.281 51.625C125.215 51.625 120.943 49.9451 117.65 46.5088ZM123.469 41.8438C122.001 40.2108 121.088 38.1796 120.73 35.75C120.636 35.1109 120.58 34.4442 120.562 33.75H143.469V31.3438C143.469 25.9479 142.25 21.8021 139.812 18.9062C137.375 16.0104 133.958 14.5625 129.562 14.5625C126.875 14.5625 124.375 15.3125 122.062 16.8125C119.771 18.2917 117.979 20.3542 116.688 23C115.417 25.625 114.781 28.6146 114.781 31.9688V33.0312C114.781 38.0729 116.219 42.1042 119.094 45.125C121.969 48.125 125.698 49.625 130.281 49.625C135.948 49.625 140.198 47.4479 143.031 43.0938L139.5 40.3438C139.477 40.3732 139.454 40.4024 139.432 40.4316C138.384 41.7659 137.168 42.8407 135.781 43.6562C134.365 44.4896 132.635 44.9062 130.594 44.9062C127.719 44.9062 125.344 43.8854 123.469 41.8438ZM125.154 23.2345L125.146 23.2435C124.293 24.1525 123.614 25.3803 123.168 27H135.506C135.205 25.2425 134.606 23.9719 133.813 23.0739L133.805 23.0643C132.817 21.9306 131.479 21.3125 129.562 21.3125C127.785 21.3125 126.358 21.9354 125.154 23.2345ZM137.531 27C137.604 27.498 137.657 28.0188 137.688 28.5625V29H120.75C120.836 28.2971 120.954 27.6305 121.104 27C121.606 24.8835 122.468 23.1752 123.688 21.875C125.271 20.1667 127.229 19.3125 129.562 19.3125C131.979 19.3125 133.896 20.125 135.312 21.75C136.467 23.0573 137.206 24.8073 137.531 27ZM167.824 21.901C167.375 22.281 166.782 22.4444 166.202 22.3478C165.451 22.2225 164.614 22.1562 163.688 22.1562C162.075 22.1562 160.875 22.4981 159.977 23.0613C159.173 23.5658 158.493 24.3221 157.969 25.4251V49C157.969 50.1046 157.073 51 155.969 51H150.188C149.083 51 148.188 50.1046 148.188 49V15.1875C148.188 14.0829 149.083 13.1875 150.188 13.1875H155.812C156.633 13.1875 157.341 13.6825 157.648 14.393C159.443 13.1839 161.562 12.5625 163.969 12.5625C165.21 12.5625 166.431 12.714 167.426 13.2111C168.103 13.5499 168.531 14.2425 168.531 15V20.375C168.531 20.9629 168.273 21.521 167.824 21.901ZM157.851 16.761C157.13 17.3995 156.482 18.1771 155.906 19.0938L155.812 15.1875H150.188V49H155.969V25C157.323 21.7708 159.896 20.1562 163.688 20.1562C163.975 20.1562 164.256 20.162 164.531 20.1735C165.236 20.203 165.902 20.2702 166.531 20.375V15C165.948 14.7083 165.094 14.5625 163.969 14.5625C161.545 14.5625 159.506 15.2953 157.851 16.761ZM191.5 51C190.742 51 190.05 50.572 189.711 49.8944C189.596 49.6647 189.492 49.4093 189.397 49.1313C186.94 50.7811 184.15 51.625 181.062 51.625C177.332 51.625 174.099 50.5649 171.528 48.3186L171.512 48.3049C168.954 46.0223 167.656 43.0798 167.656 39.625C167.656 35.515 169.256 32.1623 172.481 29.8195C175.635 27.522 179.879 26.5 184.969 26.5H188.594V25.8438C188.594 24.2482 188.132 23.1978 187.379 22.4577L187.367 22.4455C186.657 21.7356 185.466 21.2188 183.438 21.2188C181.724 21.2188 180.436 21.6453 179.446 22.3841C178.455 23.1241 178.156 23.8314 178.156 24.5625C178.156 25.6671 177.261 26.5625 176.156 26.5625H170.344C169.239 26.5625 168.344 25.6671 168.344 24.5625C168.344 22.3692 169.126 20.3288 170.533 18.4773L170.535 18.4742C171.969 16.5947 173.874 15.1489 176.181 14.113L176.188 14.1099C178.528 13.0697 181.068 12.5625 183.781 12.5625C188.005 12.5625 191.584 13.6279 194.261 16.0008C196.956 18.3676 198.28 21.6094 198.374 25.4825C198.375 25.4924 198.375 25.5023 198.375 25.5122C198.375 25.5185 198.375 25.5249 198.375 25.5312V41.0938C198.375 44.0605 198.758 46.224 199.399 47.7071C199.507 47.9575 199.562 48.2273 199.562 48.5V49C199.562 50.1046 198.667 51 197.562 51H191.5ZM192.938 17.5C190.729 15.5417 187.677 14.5625 183.781 14.5625C181.323 14.5625 179.062 15.0208 177 15.9375C174.958 16.8542 173.333 18.1042 172.125 19.6875C171.414 20.6234 170.915 21.5817 170.63 22.5625C170.439 23.2191 170.344 23.8858 170.344 24.5625H176.156C176.156 23.0833 176.854 21.8229 178.25 20.7812C179.646 19.7396 181.375 19.2188 183.438 19.2188C185.792 19.2188 187.573 19.8229 188.781 21.0312C189.99 22.2188 190.594 23.8229 190.594 25.8438V28.5H184.969C180.115 28.5 176.344 29.4792 173.656 31.4375C170.99 33.375 169.656 36.1042 169.656 39.625C169.656 42.5208 170.719 44.9167 172.844 46.8125C174.99 48.6875 177.729 49.625 181.062 49.625C183.996 49.625 186.607 48.7612 188.896 47.0336C189.517 46.5651 190.114 46.0331 190.688 45.4375C190.804 46.3933 190.94 47.186 191.096 47.8157C191.218 48.3116 191.353 48.7063 191.5 49H197.562V48.5C197.364 48.04 197.19 47.54 197.041 47C196.597 45.3878 196.375 43.4191 196.375 41.0938V25.5312C196.292 22.1146 195.146 19.4375 192.938 17.5ZM181.906 42.5938C183.355 42.5938 184.731 42.2237 186.063 41.4551C187.232 40.7808 188.051 39.9706 188.594 39.0351V34.5938H186.062C182.65 34.5938 180.419 35.1046 179.104 35.8745C177.954 36.5477 177.438 37.4408 177.438 38.8125C177.438 40.132 177.851 40.9517 178.541 41.5347C179.32 42.1929 180.385 42.5938 181.906 42.5938ZM186.062 32.5938C178.979 32.5938 175.438 34.6667 175.438 38.8125C175.438 40.625 176.042 42.0417 177.25 43.0625C178.458 44.0833 180.01 44.5938 181.906 44.5938C183.719 44.5938 185.438 44.125 187.062 43.1875C188.688 42.25 189.865 41.0312 190.594 39.5312V32.5938H186.062ZM213.281 5C214.386 5 215.281 5.89543 215.281 7V13.1875H219.594C220.698 13.1875 221.594 14.0829 221.594 15.1875V19.6562C221.594 20.7608 220.698 21.6562 219.594 21.6562H215.281V40.625C215.281 41.7167 215.508 42.2079 215.66 42.4045C215.705 42.4502 215.985 42.6875 217 42.6875C217.457 42.6875 218.212 42.5966 219.331 42.3569C219.922 42.2303 220.538 42.3775 221.007 42.7572C221.477 43.1369 221.75 43.7085 221.75 44.3125V49C221.75 49.901 221.147 50.6908 220.278 50.9289C218.602 51.3882 216.945 51.625 215.312 51.625C212.308 51.625 209.727 50.6983 207.937 48.5676C206.219 46.5221 205.5 43.7806 205.5 40.625V21.6562H201.344C200.239 21.6562 199.344 20.7608 199.344 19.6562V15.1875C199.344 14.0829 200.239 13.1875 201.344 13.1875H205.5V7C205.5 5.89543 206.395 5 207.5 5H213.281ZM207.5 15.1875H201.344V19.6562H207.5V40.625C207.5 43.5 208.156 45.7188 209.469 47.2812C210.781 48.8438 212.729 49.625 215.312 49.625C216.75 49.625 218.229 49.4167 219.75 49V44.3125C218.972 44.4792 218.306 44.5903 217.75 44.6458C217.472 44.6736 217.222 44.6875 217 44.6875C215.646 44.6875 214.688 44.3542 214.125 43.6875C213.562 43 213.281 41.9792 213.281 40.625V19.6562H219.594V15.1875H213.281V7H207.5V15.1875ZM227.775 46.5088L227.77 46.5038C224.47 43.0362 222.906 38.4726 222.906 33.0312V31.9688C222.906 28.358 223.592 25.0632 225.012 22.1285L225.015 22.1226C226.453 19.1773 228.479 16.8265 231.1 15.1341C233.727 13.4299 236.604 12.5625 239.688 12.5625C244.568 12.5625 248.587 14.1958 251.468 17.6183C254.315 21.0013 255.594 25.6739 255.594 31.3438V33.75C255.594 34.8546 254.698 35.75 253.594 35.75H232.88C233.215 37.7064 233.967 39.264 235.074 40.4991C236.554 42.1059 238.384 42.9062 240.719 42.9062C242.489 42.9062 243.849 42.5459 244.892 41.9324C246.077 41.2356 247.127 40.3059 248.042 39.1209C248.368 38.7001 248.847 38.4261 249.374 38.3595C249.902 38.2929 250.434 38.4391 250.854 38.7658L254.385 41.5158C255.205 42.1541 255.399 43.3138 254.833 44.1846C251.592 49.1644 246.677 51.625 240.406 51.625C235.34 51.625 231.068 49.9451 227.775 46.5088ZM233.594 41.8438C232.126 40.2108 231.213 38.1796 230.855 35.75C230.761 35.1109 230.705 34.4442 230.688 33.75H253.594V31.3438C253.594 25.9479 252.375 21.8021 249.938 18.9062C247.5 16.0104 244.083 14.5625 239.688 14.5625C237 14.5625 234.5 15.3125 232.188 16.8125C229.896 18.2917 228.104 20.3542 226.812 23C225.542 25.625 224.906 28.6146 224.906 31.9688V33.0312C224.906 38.0729 226.344 42.1042 229.219 45.125C232.094 48.125 235.823 49.625 240.406 49.625C246.073 49.625 250.323 47.4479 253.156 43.0938L249.625 40.3438C249.602 40.3732 249.579 40.4024 249.557 40.4316C248.509 41.7659 247.293 42.8407 245.906 43.6562C244.49 44.4896 242.76 44.9062 240.719 44.9062C237.844 44.9062 235.469 43.8854 233.594 41.8438ZM235.279 23.2345L235.271 23.2435C234.418 24.1525 233.739 25.3803 233.293 27H245.631C245.33 25.2425 244.731 23.9719 243.938 23.0739L243.93 23.0643C242.942 21.9306 241.604 21.3125 239.688 21.3125C237.91 21.3125 236.483 21.9354 235.279 23.2345ZM247.656 27C247.729 27.498 247.782 28.0188 247.812 28.5625V29H230.875C230.961 28.2971 231.079 27.6305 231.229 27C231.731 24.8835 232.593 23.1752 233.812 21.875C235.396 20.1667 237.354 19.3125 239.688 19.3125C242.104 19.3125 244.021 20.125 245.438 21.75C246.592 23.0573 247.331 24.8073 247.656 27ZM303.656 49L293.781 30.5938H283.094V49H277.062V3.5H292.125C297.25 3.5 301.188 4.66667 303.938 7C306.708 9.33333 308.094 12.7292 308.094 17.1875C308.094 20.0208 307.323 22.4896 305.781 24.5938C304.619 26.2019 303.104 27.4998 301.235 28.4874C300.659 28.7919 300.05 29.067 299.406 29.3125L310.094 48.625V49H303.656ZM302.204 30.2375L311.844 47.6566C312.008 47.953 312.094 48.2862 312.094 48.625V49C312.094 50.1046 311.198 51 310.094 51H303.656C302.919 51 302.242 50.5948 301.894 49.9455L292.585 32.5938H285.094V49C285.094 50.1046 284.198 51 283.094 51H277.062C275.958 51 275.062 50.1046 275.062 49V3.5C275.062 2.39543 275.958 1.5 277.062 1.5H292.125C297.526 1.5 301.991 2.72737 305.229 5.47258C308.551 8.27218 310.094 12.2893 310.094 17.1875C310.094 20.4043 309.211 23.2936 307.399 25.7691C306.048 27.6375 304.302 29.1223 302.204 30.2375ZM298.084 21.8743L298.093 21.8665C299.381 20.7455 300.062 19.2576 300.062 17.1875C300.062 14.795 299.362 13.2439 298.203 12.2136L298.193 12.2054C297.017 11.1467 295.149 10.4574 292.275 10.4375H285.094V23.6875H292.312C294.944 23.6875 296.792 23.0129 298.084 21.8743ZM292.312 25.6875C295.292 25.6875 297.656 24.9167 299.406 23.375C301.177 21.8333 302.062 19.7708 302.062 17.1875C302.062 14.375 301.219 12.2188 299.531 10.7188C297.865 9.21875 295.448 8.45833 292.281 8.4375H283.094V25.6875H292.312ZM334.565 47.4284C335.279 46.9244 335.924 46.3337 336.5 45.6562L336.625 49H342.125V15.1875H336.344V39.7812C334.885 43.0729 331.948 44.7188 327.531 44.7188C323.365 44.7188 321.281 42.1562 321.281 37.0312V15.1875H315.5V37.1875C315.521 41.2917 316.469 44.3958 318.344 46.5C320.24 48.5833 322.99 49.625 326.594 49.625C329.833 49.625 332.49 48.8928 334.565 47.4284ZM334.745 49.6844C332.454 51.0021 329.704 51.625 326.594 51.625C322.594 51.625 319.239 50.4555 316.865 47.8461L316.851 47.8306C314.531 45.2274 313.522 41.5708 313.5 37.1977L313.5 37.1875L313.5 15.1875C313.5 14.0829 314.395 13.1875 315.5 13.1875H321.281C322.386 13.1875 323.281 14.0829 323.281 15.1875V37.0312C323.281 39.3743 323.766 40.7606 324.396 41.5352C324.961 42.2307 325.878 42.7188 327.531 42.7188C329.501 42.7188 330.978 42.351 332.069 41.7396C333.031 41.2008 333.788 40.4205 334.344 39.3316V15.1875C334.344 14.0829 335.239 13.1875 336.344 13.1875H342.125C343.23 13.1875 344.125 14.0829 344.125 15.1875V49C344.125 50.1046 343.23 51 342.125 51H336.625C335.763 51 335.025 50.4541 334.745 49.6844ZM358.508 17.4478C357.828 18.0246 357.19 18.6878 356.594 19.4375L356.406 15.1875H350.938V49H356.719V24.9062C357.51 23.2812 358.615 21.9688 360.031 20.9688C361.448 19.9688 363.094 19.4688 364.969 19.4688C367.281 19.4688 368.979 20.0521 370.062 21.2188C371.167 22.3854 371.729 24.1875 371.75 26.625V49H377.531V26.6562C377.469 18.5938 373.865 14.5625 366.719 14.5625C363.513 14.5625 360.776 15.5243 358.508 17.4478ZM369.75 26.6351C369.73 24.4529 369.224 23.2419 368.61 22.5935L368.597 22.5797C368.036 21.9757 366.98 21.4688 364.969 21.4688C363.471 21.4688 362.236 21.8605 361.185 22.6027C360.168 23.3204 359.347 24.2402 358.719 25.3907V49C358.719 50.1046 357.823 51 356.719 51H350.938C349.833 51 348.938 50.1046 348.938 49V15.1875C348.938 14.0829 349.833 13.1875 350.938 13.1875H356.406C357.449 13.1875 358.312 13.9878 358.399 15.0183C360.784 13.3881 363.573 12.5625 366.719 12.5625C370.668 12.5625 373.979 13.6876 376.272 16.2529C378.526 18.7733 379.498 22.3553 379.531 26.6407L379.531 26.6562V49C379.531 50.1046 378.636 51 377.531 51H371.75C370.645 51 369.75 50.1046 369.75 49V26.6351ZM394.094 5C395.198 5 396.094 5.89543 396.094 7V13.1875H400.406C401.03 13.1875 401.586 13.4727 401.953 13.9197C402.331 13.4582 402.898 13.1875 403.5 13.1875H409.812C410.674 13.1875 411.438 13.7387 411.71 14.5557L418.184 34.0025L424.215 14.594C424.475 13.7575 425.249 13.1875 426.125 13.1875H432.312C432.96 13.1875 433.568 13.5011 433.943 14.029C434.318 14.5569 434.414 15.2337 434.201 15.8453L420.607 54.8766C420.602 54.8909 420.597 54.9052 420.592 54.9195C419.462 57.9391 417.936 60.382 415.92 62.0774C413.869 63.8026 411.425 64.6562 408.688 64.6562C408.63 64.6562 408.574 64.6538 408.517 64.6489L407.423 64.5552C407.356 64.5495 407.289 64.5404 407.223 64.5279L405.067 64.1217C404.122 63.9436 403.438 63.118 403.438 62.1562V57.4688C403.438 56.9106 403.671 56.3778 404.081 55.9992C404.491 55.6206 405.041 55.4306 405.597 55.4751L407.077 55.5935C408.752 55.5832 409.776 55.2347 410.382 54.7915L410.397 54.7809C411.005 54.3448 411.734 53.3614 412.386 51.4244C412.393 51.4042 412.4 51.384 412.407 51.364L413.432 48.6137L402.406 18.0493V19.6562C402.406 20.7608 401.511 21.6562 400.406 21.6562H396.094V40.625C396.094 41.7166 396.321 42.2078 396.472 42.4045C396.517 42.45 396.797 42.6875 397.812 42.6875C398.269 42.6875 399.025 42.5966 400.143 42.3569C400.734 42.2303 401.35 42.3775 401.82 42.7572C402.29 43.1369 402.562 43.7085 402.562 44.3125V49C402.562 49.901 401.96 50.6908 401.091 50.9289C399.414 51.3882 397.757 51.625 396.125 51.625C393.121 51.625 390.54 50.6983 388.75 48.5676C387.032 46.5221 386.312 43.7806 386.312 40.625V21.6562H382.156C381.052 21.6562 380.156 20.7608 380.156 19.6562V15.1875C380.156 14.0829 381.052 13.1875 382.156 13.1875H386.312V7C386.312 5.89543 387.208 5 388.312 5H394.094ZM388.312 15.1875H382.156V19.6562H388.312V40.625C388.312 43.5 388.969 45.7188 390.281 47.2812C391.594 48.8438 393.542 49.625 396.125 49.625C397.562 49.625 399.042 49.4167 400.562 49V44.3125C399.785 44.4792 399.118 44.5903 398.562 44.6458C398.285 44.6736 398.035 44.6875 397.812 44.6875C396.458 44.6875 395.5 44.3542 394.938 43.6875C394.375 43 394.094 41.9792 394.094 40.625V19.6562H400.406V15.1875H394.094V7H388.312V15.1875ZM415.562 48.625L414.281 52.0625C413.573 54.1667 412.667 55.6146 411.562 56.4062C410.561 57.1379 409.186 57.5315 407.438 57.5869C407.294 57.5915 407.148 57.5938 407 57.5938L405.438 57.4688V62.1562L407.594 62.5625L408.688 62.6562C413.271 62.6562 416.615 59.8438 418.719 54.2188L432.312 15.1875H426.125L418.25 40.5312L409.812 15.1875H403.5L415.562 48.625ZM444.929 17.0793C444.253 17.6136 443.631 18.233 443.062 18.9375L442.781 15.1875H437.5V62H443.281V45.7188C443.889 46.3916 444.556 46.9775 445.281 47.4765C447.362 48.9088 449.925 49.625 452.969 49.625C456.99 49.625 460.177 48.0521 462.531 44.9062C464.885 41.7604 466.062 37.6146 466.062 32.4688V31.9375C466.062 26.4792 464.875 22.2188 462.5 19.1562C460.146 16.0938 456.938 14.5625 452.875 14.5625C449.699 14.5625 447.05 15.4014 444.929 17.0793ZM444.736 14.7625C444.54 13.8557 443.734 13.1875 442.781 13.1875H437.5C436.395 13.1875 435.5 14.0829 435.5 15.1875V62C435.5 63.1046 436.395 64 437.5 64H443.281C444.386 64 445.281 63.1046 445.281 62V49.8228C447.499 51.0375 450.082 51.625 452.969 51.625C457.603 51.625 461.39 49.7687 464.133 46.1046C466.816 42.5193 468.062 37.913 468.062 32.4688V31.9375C468.062 26.2153 466.82 21.4664 464.084 17.9356C461.329 14.3529 457.521 12.5625 452.875 12.5625C449.776 12.5625 447.038 13.2862 444.736 14.7625ZM456.207 40.4324L456.209 40.4298C457.487 38.7144 458.281 35.9452 458.281 31.8125C458.281 28.2639 457.523 25.7202 456.233 23.9666C454.999 22.2903 453.379 21.4688 451.156 21.4688C448.559 21.4688 446.665 22.4844 445.281 24.6751V39.7325C445.944 40.7812 446.712 41.5226 447.569 42.0219C448.54 42.5874 449.733 42.9062 451.219 42.9062C453.369 42.9062 454.967 42.1019 456.207 40.4324ZM474.837 46.5088L474.832 46.5038C471.532 43.0362 469.969 38.4726 469.969 33.0312V31.9688C469.969 28.358 470.654 25.0632 472.075 22.1285L472.078 22.1226C473.516 19.1773 475.542 16.8265 478.162 15.1341C480.79 13.4299 483.666 12.5625 486.75 12.5625C491.63 12.5625 495.649 14.1958 498.53 17.6183C501.378 21.0013 502.656 25.6739 502.656 31.3438V33.75C502.656 34.8546 501.761 35.75 500.656 35.75H479.942C480.277 37.7064 481.029 39.2639 482.137 40.4991C483.616 42.1057 485.447 42.9062 487.781 42.9062C489.552 42.9062 490.912 42.5459 491.955 41.9324C493.139 41.2356 494.189 40.3059 495.105 39.1209C495.43 38.7001 495.909 38.4261 496.437 38.3595C496.964 38.2929 497.497 38.4391 497.916 38.7658L501.448 41.5158C502.267 42.1541 502.462 43.3138 501.895 44.1846C498.655 49.1644 493.739 51.625 487.469 51.625C482.402 51.625 478.13 49.9451 474.837 46.5088ZM480.656 41.8438C479.188 40.2108 478.275 38.1796 477.917 35.75C477.823 35.1109 477.767 34.4442 477.75 33.75H500.656V31.3438C500.656 25.9479 499.438 21.8021 497 18.9062C494.562 16.0104 491.146 14.5625 486.75 14.5625C484.062 14.5625 481.562 15.3125 479.25 16.8125C476.958 18.2917 475.167 20.3542 473.875 23C472.604 25.625 471.969 28.6146 471.969 31.9688V33.0312C471.969 38.0729 473.406 42.1042 476.281 45.125C479.156 48.125 482.885 49.625 487.469 49.625C493.135 49.625 497.385 47.4479 500.219 43.0938L496.688 40.3438C496.665 40.3732 496.642 40.4024 496.619 40.4316C495.572 41.7659 494.355 42.8407 492.969 43.6562C491.552 44.4896 489.823 44.9062 487.781 44.9062C484.906 44.9062 482.531 43.8854 480.656 41.8438ZM482.342 23.2345L482.334 23.2435C481.481 24.1525 480.801 25.3803 480.355 27H492.693C492.393 25.2425 491.794 23.9719 491.001 23.0739L490.992 23.0643C490.004 21.9306 488.667 21.3125 486.75 21.3125C484.972 21.3125 483.546 21.9354 482.342 23.2345ZM494.718 27C494.792 27.498 494.844 28.0188 494.875 28.5625V29H477.938C478.024 28.2971 478.141 27.6305 478.291 27C478.794 24.8835 479.655 23.1752 480.875 21.875C482.458 20.1667 484.417 19.3125 486.75 19.3125C489.167 19.3125 491.083 20.125 492.5 21.75C493.654 23.0573 494.394 24.8073 494.718 27ZM524.113 38.0299C524.103 38.0221 524.092 38.0142 524.081 38.0062C523.284 37.4086 521.601 36.7278 518.709 36.1125L518.706 36.1119C515.701 35.468 513.195 34.6732 511.253 33.6908L511.245 33.6864C509.329 32.7054 507.767 31.4683 506.697 29.9167L506.684 29.8972C505.619 28.313 505.125 26.4737 505.125 24.4688C505.125 21.0408 506.607 18.1498 509.356 15.892L509.362 15.8865C512.141 13.6241 515.615 12.5625 519.625 12.5625C523.81 12.5625 527.404 13.6495 530.218 15.9948C533.065 18.3498 534.531 21.4425 534.531 25.125C534.531 26.2296 533.636 27.125 532.531 27.125H526.719C525.614 27.125 524.719 26.2296 524.719 25.125C524.719 24.2051 524.361 23.3752 523.396 22.558L523.384 22.5481C522.471 21.7634 521.27 21.3125 519.625 21.3125C517.789 21.3125 516.63 21.7143 515.91 22.2707C515.205 22.815 514.906 23.4321 514.906 24.2812C514.906 25.0482 515.154 25.441 515.642 25.7541C516.425 26.2563 518.108 26.8745 520.967 27.5167C523.953 28.1828 526.468 28.9978 528.457 29.9924C530.458 30.9932 532.083 32.2744 533.18 33.8994C534.325 35.5418 534.844 37.4875 534.844 39.625C534.844 43.2745 533.34 46.29 530.428 48.4996L530.419 48.5063C527.571 50.6424 523.979 51.625 519.812 51.625C516.867 51.625 514.178 51.1033 511.789 50.0045C509.416 48.9127 507.488 47.3598 506.077 45.329L506.061 45.3061C504.681 43.2615 503.969 41.0101 503.969 38.5938C503.969 37.4892 504.864 36.5938 505.969 36.5938H511.75C512.813 36.5938 513.69 37.4251 513.747 38.4864C513.822 39.8833 514.341 40.8783 515.297 41.6449C516.314 42.4247 517.759 42.9062 519.812 42.9062C521.75 42.9062 523.07 42.517 523.95 41.9318C524.784 41.3702 525.062 40.7784 525.062 40.0312C525.062 39.0609 524.738 38.4792 524.113 38.0299ZM525.062 43.5938C523.75 44.4688 522 44.9062 519.812 44.9062C517.438 44.9062 515.521 44.3438 514.062 43.2188C512.625 42.0729 511.854 40.5312 511.75 38.5938H505.969C505.969 39.2762 506.037 39.9428 506.173 40.5938C506.435 41.8504 506.95 43.0484 507.719 44.1875C508.906 45.8958 510.542 47.2292 512.625 48.1875C514.708 49.1458 517.104 49.625 519.812 49.625C523.667 49.625 526.802 48.7188 529.219 46.9062C531.635 45.0729 532.844 42.6458 532.844 39.625C532.844 37.8125 532.406 36.2812 531.531 35.0312C530.677 33.7604 529.354 32.6771 527.562 31.7812C525.771 30.8854 523.427 30.1146 520.531 29.4688C517.656 28.8229 515.667 28.1458 514.562 27.4375C513.458 26.7292 512.906 25.6771 512.906 24.2812C512.906 22.8021 513.5 21.6042 514.688 20.6875C515.875 19.7708 517.521 19.3125 519.625 19.3125C521.667 19.3125 523.354 19.8854 524.688 21.0312C526.042 22.1771 526.719 23.5417 526.719 25.125H532.531C532.531 24.4303 532.47 23.7636 532.349 23.125C531.931 20.9291 530.794 19.0645 528.938 17.5312C526.562 15.5521 523.458 14.5625 519.625 14.5625C515.979 14.5625 512.979 15.5208 510.625 17.4375C508.292 19.3542 507.125 21.6979 507.125 24.4688C507.125 26.1354 507.531 27.5729 508.344 28.7812C509.177 29.9896 510.448 31.0312 512.156 31.9062C513.885 32.7812 516.208 33.5312 519.125 34.1562C522.062 34.7812 524.115 35.5312 525.281 36.4062C526.469 37.2604 527.062 38.4688 527.062 40.0312C527.062 41.5104 526.396 42.6979 525.062 43.5938ZM457.844 22.7812C459.469 24.9896 460.281 28 460.281 31.8125C460.281 36.1458 459.458 39.4167 457.812 41.625C456.188 43.8125 453.99 44.9062 451.219 44.9062C447.656 44.9062 445.01 43.3646 443.281 40.2812V24.125C445.031 21.0208 447.656 19.4688 451.156 19.4688C453.99 19.4688 456.219 20.5729 457.844 22.7812Z"
        fill="url(#paint0_linear)" />
    <defs>
        <linearGradient id="paint0_linear" x1="536" y1="-9.99986" x2="-0.999961" y2="49.0002"
            gradientUnits="userSpaceOnUse">
            <stop stop-color="#12F4D8" />
            <stop offset="0.526042" stop-color="#0183F6" />
            <stop offset="1" stop-color="#BE93DE" />
        </linearGradient>
    </defs>
</svg>
